<svg width="18" height="16" viewBox="0 0 18 16" fill="none" xmlns="http://www.w3.org/2000/svg">
<path d="M6.75515 4.59643C6.58859 4.59643 6.45358 4.73934 6.45358 4.91562V6.8308H4.64416C4.47761 6.8308 4.34259 6.97371 4.34259 7.15C4.34259 7.32628 4.47761 7.46919 4.64416 7.46919H6.45358V9.38437C6.45358 9.56066 6.58859 9.70357 6.75515 9.70357C6.9217 9.70357 7.05672 9.56066 7.05672 9.38437V7.46919H8.86613C9.03268 7.46919 9.1677 7.32628 9.1677 7.15C9.1677 6.97371 9.03268 6.8308 8.86613 6.8308H7.05672V4.91562C7.05672 4.73934 6.9217 4.59643 6.75515 4.59643Z" fill="white"/>
<path fill-rule="evenodd" clip-rule="evenodd" d="M12.6516 10.6414C13.1985 9.60881 13.5103 8.41795 13.5103 7.15C13.5103 3.20116 10.4859 0 6.75515 0C3.02438 0 0 3.20116 0 7.15C0 11.0988 3.02438 14.3 6.75515 14.3C8.69803 14.3 10.4493 13.4318 11.6817 12.042L16.7029 15.8382C17.0715 16.1169 17.5838 16.0265 17.8471 15.6364C18.1105 15.2462 18.0251 14.7039 17.6564 14.4252L12.6516 10.6414ZM6.75515 12.5636C9.57987 12.5636 11.8698 10.1398 11.8698 7.15C11.8698 4.16017 9.57987 1.73643 6.75515 1.73643C3.93042 1.73643 1.64054 4.16017 1.64054 7.15C1.64054 10.1398 3.93042 12.5636 6.75515 12.5636Z" fill="white"/>
</svg>
