<svg width="18" height="18" viewBox="0 0 18 18" fill="none" xmlns="http://www.w3.org/2000/svg">
<path d="M6.53855 7.676C8.23793 7.676 9.61555 6.19464 9.61555 4.36729C9.61555 2.53995 8.23793 1.05859 6.53855 1.05859C4.83917 1.05859 3.46155 2.53995 3.46155 4.36729C3.46155 6.19464 4.83917 7.676 6.53855 7.676Z" stroke="#150A33" stroke-width="1.7" stroke-linecap="round" stroke-linejoin="round"/>
<path d="M1 16.9414H6.5386H12.0772V16.2239C12.0674 15.2152 11.82 14.2255 11.3581 13.3475C10.8962 12.4694 10.2348 11.7315 9.43582 11.2028C8.63681 10.6741 7.72621 10.3718 6.78909 10.324C6.70555 10.3198 6.62202 10.3176 6.5386 10.3174C6.45518 10.3176 6.37165 10.3198 6.28811 10.324C5.35099 10.3718 4.44039 10.6741 3.64138 11.2028C2.84238 11.7315 2.18104 12.4694 1.71912 13.3475C1.25721 14.2255 1.0098 15.2152 1 16.2239V16.9414Z" stroke="#150A33" stroke-width="1.7" stroke-linecap="round" stroke-linejoin="round"/>
<path d="M11.4618 7.676C13.1612 7.676 14.5388 6.19464 14.5388 4.36729C14.5388 2.53995 13.1612 1.05859 11.4618 1.05859" stroke="#150A33" stroke-width="1.7" stroke-linecap="round" stroke-linejoin="round"/>
<path d="M14.5383 16.9404H16.9999V16.2228C16.9901 15.214 16.7427 14.2243 16.2808 13.3463C15.8189 12.4682 15.1576 11.7304 14.3585 11.2017C13.8421 10.8599 13.2789 10.6127 12.6921 10.4678" stroke="#150A33" stroke-width="1.7" stroke-linecap="round" stroke-linejoin="round"/>
</svg>
