<svg width="18" height="16" viewBox="0 0 18 16" fill="none" xmlns="http://www.w3.org/2000/svg">
<path d="M6.53902 6.83312C8.23845 6.83312 9.61612 5.52733 9.61612 3.91656C9.61612 2.30579 8.23845 1 6.53902 1C4.83958 1 3.46191 2.30579 3.46191 3.91656C3.46191 5.52733 4.83958 6.83312 6.53902 6.83312Z" stroke="#242424" stroke-width="1.7" stroke-linecap="round" stroke-linejoin="round"/>
<path d="M1 15.0001H6.53879H12.0776V14.3677C12.0678 13.4785 11.8204 12.6061 11.3584 11.8321C10.8965 11.0581 10.2351 10.4077 9.4361 9.94162C8.63706 9.47555 7.72644 9.20906 6.78929 9.167C6.70574 9.16326 6.62221 9.1613 6.53879 9.16113C6.45536 9.1613 6.37184 9.16326 6.28829 9.167C5.35114 9.20906 4.44051 9.47555 3.64147 9.94162C2.84245 10.4077 2.18108 11.0581 1.71914 11.8321C1.25722 12.6061 1.0098 13.4785 1 14.3677V15.0001Z" stroke="#242424" stroke-width="1.7" stroke-linecap="round" stroke-linejoin="round"/>
<path d="M11.4629 6.83312C13.1623 6.83312 14.54 5.52733 14.54 3.91656C14.54 2.30579 13.1623 1 11.4629 1" stroke="#242424" stroke-width="1.7" stroke-linecap="round" stroke-linejoin="round"/>
<path d="M14.5386 14.9994H17.0003V14.3669C16.9905 13.4777 16.7431 12.6053 16.2811 11.8314C15.8192 11.0573 15.1579 10.4069 14.3588 9.94087C13.8424 9.63959 13.2791 9.42171 12.6924 9.29395" stroke="#242424" stroke-width="1.7" stroke-linecap="round" stroke-linejoin="round"/>
</svg>
