<svg width="20" height="14" viewBox="0 0 20 14" fill="none" xmlns="http://www.w3.org/2000/svg">
<path d="M18.6426 5.99501C18.8726 6.27063 19 6.62872 19 7.00001C19 7.3713 18.8726 7.72939 18.6426 8.00502C17.186 9.70002 13.8704 13 10 13C6.12957 13 2.81403 9.70002 1.35741 8.00502C1.12735 7.72939 1 7.3713 1 7.00001C1 6.62872 1.12735 6.27063 1.35741 5.99501C2.81403 4.3 6.12957 1 10 1C13.8704 1 17.186 4.3 18.6426 5.99501Z" stroke="#150A33" stroke-width="1.7" stroke-linecap="round" stroke-linejoin="round"/>
<path d="M10.0001 9.66726C11.5324 9.66726 12.7746 8.47337 12.7746 7.00062C12.7746 5.52788 11.5324 4.33398 10.0001 4.33398C8.46778 4.33398 7.22559 5.52788 7.22559 7.00062C7.22559 8.47337 8.46778 9.66726 10.0001 9.66726Z" stroke="#150A33" stroke-width="1.7" stroke-linecap="round" stroke-linejoin="round"/>
</svg>
