<svg width="9" height="8" viewBox="0 0 9 8" fill="none" xmlns="http://www.w3.org/2000/svg">
<path fill-rule="evenodd" clip-rule="evenodd" d="M5.00315 7.87413C4.85166 7.95645 4.67755 8 4.5 8C4.32245 8 4.14835 7.95645 3.99686 7.87413C3.84537 7.79182 3.72237 7.67394 3.64142 7.53348L3.63998 7.53099L0.103229 1.24339C0.0293969 1.11299 -0.00603931 0.967497 0.000842246 0.821607C0.0077238 0.675545 0.0564726 0.533484 0.142524 0.408917C0.228575 0.28435 0.348971 0.181391 0.49239 0.109818C0.635745 0.0382449 0.797364 0.000457574 0.961814 2.50954e-07L8.03724 8.69507e-07C8.20169 0.000458221 8.36425 0.0382456 8.50764 0.109819C8.65103 0.181392 8.77145 0.284351 8.85748 0.408918C8.9435 0.533485 8.99227 0.675545 8.99916 0.821608C9.00603 0.967498 8.97089 1.11253 8.89706 1.24293L5.36001 7.53098L5.3586 7.53349C5.27765 7.67395 5.15463 7.79182 5.00315 7.87413Z" fill="#242424"/>
</svg>
