<svg width="16" height="16" viewBox="0 0 16 16" fill="none" xmlns="http://www.w3.org/2000/svg">
<g clip-path="url(#clip0_4444_25257)">
<path d="M15.3257 4.11C15.3036 3.99024 15.2566 3.87645 15.1877 3.77603C15.1188 3.67562 15.0296 3.59082 14.9257 3.52714L12.64 5.81285C12.5333 5.92346 12.4056 6.01145 12.2642 6.07154C12.1228 6.13163 11.9707 6.1626 11.8171 6.1626C11.6635 6.1626 11.5115 6.13163 11.3701 6.07154C11.2287 6.01145 11.1009 5.92346 10.9943 5.81285L10.1257 5.03571C9.9163 4.82208 9.79901 4.53485 9.79901 4.23571C9.79901 3.93657 9.9163 3.64934 10.1257 3.43571L12.4114 1.15C12.3616 1.0329 12.2866 0.928181 12.1918 0.84326C12.097 0.75834 11.9848 0.695289 11.8628 0.658569C11.0653 0.499529 10.2392 0.567607 9.47846 0.855052C8.71774 1.1425 8.05301 1.63776 7.55995 2.28445C7.06689 2.93115 6.76531 3.7033 6.68955 4.51298C6.61858 5.27145 6.74844 6.0343 7.0648 6.72532L0.931416 12.8586C0.478652 13.3114 0.48616 14.0478 0.948064 14.4912L1.58896 15.1065C2.03597 15.5357 2.74357 15.5304 3.18413 15.0945L9.38794 8.95795C10.0589 9.23506 10.7898 9.34046 11.5141 9.26282C12.3149 9.17697 13.0763 8.87067 13.7134 8.37798C14.3507 7.88529 14.8387 7.22553 15.1233 6.47204C15.408 5.71857 15.478 4.90091 15.3257 4.11Z" stroke="#242424" stroke-width="1.7" stroke-linecap="round" stroke-linejoin="round"/>
</g>
<defs>
<clipPath id="clip0_4444_25257">
<rect width="16" height="16" fill="white"/>
</clipPath>
</defs>
</svg>
