<svg width="17" height="15" viewBox="0 0 17 15" fill="none" xmlns="http://www.w3.org/2000/svg">
<path d="M4.48401 4.2002L8.48401 1.0002L12.484 4.2002" stroke="white" stroke-width="1.7" stroke-linecap="round" stroke-linejoin="round"/>
<path d="M8.48401 1.8L8.48401 9" stroke="white" stroke-width="1.7" stroke-linecap="round" stroke-linejoin="round"/>
<path fill-rule="evenodd" clip-rule="evenodd" d="M1.33401 6C0.864567 6 0.484009 6.38056 0.484009 6.85V13.0003C0.484009 14.1048 1.37944 15.0003 2.48401 15.0003H14.484C15.5886 15.0003 16.484 14.1048 16.484 13.0003V6.85C16.484 6.38056 16.1035 6 15.634 6C15.1646 6 14.784 6.38056 14.784 6.85V13.0003C14.784 13.1659 14.6497 13.3003 14.484 13.3003H2.48401C2.31832 13.3003 2.18401 13.1659 2.18401 13.0003V6.85C2.18401 6.38056 1.80345 6 1.33401 6Z" fill="white"/>
</svg>
